<?xml version="1.0" encoding="utf-8"?>
<!-- Generator: Adobe Illustrator 22.0.1, SVG Export Plug-In . SVG Version: 6.00 Build 0)  -->
<svg version="1.1" id="Layer_1" xmlns="http://www.w3.org/2000/svg" xmlns:xlink="http://www.w3.org/1999/xlink" x="0px" y="0px"
	 viewBox="0 0 512 512" style="enable-background:new 0 0 512 512;" xml:space="preserve">
<style type="text/css">
	.st0{fill:none;stroke:#000000;stroke-width:7;stroke-miterlimit:10;}
	.st1{fill:none;stroke:#000000;stroke-width:5;stroke-miterlimit:10;}
</style>
<g>
	<path class="st0" d="M390.1,177.3c-0.9-1.9-3.2-3-5.7-1.8c-3.8,1.8-7.6,3.2-11.4,4.3c-7,2.1-16.7,3.8-25.9,3.1
		c-8.9-0.5-16.4-3.2-23-7.1c-1-5.3-3.1-10.4-6.4-14.8l-55.9-74.3c0,0,1.2-8.3,2.5-17.7c-12.2,1.9-27.7,2.3-33-8.8
		c-5.5-11.4,5.5-23.2,9.2-27.1c3-3.2,7-6.9,10.5-9.6l-0.2-0.1c-8.7-5.3-19.7-5.3-28.5,0l-12.9-3c-2.3-0.5-4.8-0.1-6.8,1.3
		c-2,1.4-3.2,3.6-3.5,6l-1.1,10.6c-0.9,8.7,4,16.9,12.1,20.2c3.5,1.4,6.2,4.3,7.5,7.8c1.3,3.5,1.1,7.4-0.5,10.8
		c-5.2,10.5-12.3,25.6-17.2,38.5l-54.9-32.1c-5.4-3.1-12.3-1.3-15.4,4c-3.1,5.4-1.3,12.3,4,15.4l60.8,35.6l-0.1,0.1
		c4.5,3.9,33.9,26.7,61,47.3c2.7-6.3,6.7-12.4,12-17.8c2.3-2.4,6.2-2.4,8.6-0.1s2.4,6.2,0.1,8.6c-5.7,5.8-9.6,13.3-11.8,21.1
		c-3.3,12-4.3,30-1.1,43.3l-12.8,34.6c-56.1,1.6-101,47.5-101,103.9c0,57.4,46.6,104,104,104s104-46.6,104-104
		c0-50.5-35.9-92.5-83.6-102l10.9-29.4c11.1-7.6,23.3-17.9,30.2-28.1c3.4-5,8.6-16.9,9.2-23.1c8.3,1.9,16.2,2.2,23.8,1.3
		c8.5-0.8,19.1-3.8,29.4-9c3.9-2,7.9-4.3,11.8-7.1C390.4,181.2,391,179.1,390.1,177.3z"/>
</g>
<g>
	<g>
		<path class="st1" d="M275,39c-3.5-7.1-10.3-10.9-14-9.1c-3.7,1.8-23.4,18.5-20,25.6c3.5,7.1,28.8,1.9,32.5,0.1
			C277.2,53.9,278.5,46.2,275,39z"/>
	</g>
</g>
<path class="st1" d="M176.9,143.1c59-8.1-33.6,4.9-38.5,4.4c-5-0.5-5.9-6.6-5.9-6.6s-2.1-6.8,3.5-8.6c5.3-1.7,37.5-5.5,38-7.3"/>
</svg>
