<?xml version="1.0" encoding="utf-8"?>
<!-- Generator: Adobe Illustrator 22.0.1, SVG Export Plug-In . SVG Version: 6.00 Build 0)  -->
<svg version="1.1" id="Capa_1" xmlns="http://www.w3.org/2000/svg" xmlns:xlink="http://www.w3.org/1999/xlink" x="0px" y="0px"
	 viewBox="0 0 477.6 477.6" style="enable-background:new 0 0 477.6 477.6;" xml:space="preserve">
<style type="text/css">
	.st0{stroke:#000000;stroke-width:4;stroke-miterlimit:10;}
</style>
<g>
	<g>
		<path class="st0" d="M239,190.7c-29.1,0-56.8,15.6-77.9,43.9c-18.4,24.7-29.4,56-29.4,83.7c0,10.6,2.2,18.3,6.8,23.5
			c4.3,4.9,10.6,7.4,18.7,7.4c10.3,0,22.9-3.9,36.2-8.1c15.3-4.8,31.2-9.7,45.6-9.7c12.7,0,27.9,4.7,42.6,9.3
			c14.2,4.4,27.6,8.5,38.7,8.5c12.2,0,26.7-5.4,26.7-31c0-27.7-11.1-59-29.8-83.8C295.9,206.2,268.1,190.7,239,190.7z M320.3,337.2
			c-9.3,0-21.8-3.9-35.1-8c-15.6-4.8-31.7-9.8-46.2-9.8c-16.2,0-33.7,5.4-49.2,10.2c-12.4,3.9-24.2,7.5-32.7,7.5
			c-6.1,0-8.4-1.9-9.7-3.3c-2.5-2.9-3.8-8.1-3.8-15.6c0-24.9,10.4-54.2,27.1-76.6c18.8-25.2,43-39,68.3-39c57.7,0,96,69.6,96,115.6
			C335,335.8,327.7,337.2,320.3,337.2z"/>
		<path class="st0" d="M273.8,183.1c2.6,0.6,5.3,0.9,8,0.9c18.9,0,36.3-15.6,41.4-37.1c2.9-11.9,1.7-24.1-3.3-34.3
			c-5.2-10.6-13.8-17.8-24.3-20.3c-2.6-0.6-5.3-0.9-8-0.9c-18.9,0-36.3,15.6-41.4,37.1c-2.9,11.9-1.7,24.1,3.3,34.3
			C254.6,173.4,263.3,180.6,273.8,183.1z M257.8,131.3c3.9-16.2,16.4-27.9,29.8-27.9c1.7,0,3.5,0.2,5.2,0.6
			c7,1.7,12.8,6.6,16.4,13.9c3.8,7.7,4.6,17,2.4,26.2c-3.9,16.2-16.4,27.9-29.8,27.9c-1.7,0-3.5-0.2-5.2-0.6
			c-7-1.7-12.8-6.6-16.4-13.9C256.5,149.8,255.6,140.5,257.8,131.3z"/>
		<path class="st0" d="M194.4,184.1C194.4,184.1,194.4,184.1,194.4,184.1c2.7,0,5.4-0.3,8-0.9c10.5-2.5,19.1-9.7,24.3-20.3
			c5-10.2,6.2-22.4,3.3-34.3c-5.1-21.5-22.6-37.1-41.4-37.1c-2.7,0-5.4,0.3-8,0.9c-21.2,5.1-33.6,29.6-27.7,54.6
			C158.1,168.5,175.5,184.1,194.4,184.1z M183.4,104c1.7-0.4,3.4-0.6,5.2-0.6c13.4,0,25.9,11.7,29.8,27.9c2.2,9.2,1.3,18.5-2.4,26.2
			c-3.6,7.3-9.4,12.3-16.4,13.9c-1.7,0.4-3.4,0.6-5.2,0.6h0c-13.4,0-25.9-11.7-29.8-27.9C160.2,125.6,168.6,107.6,183.4,104z"/>
		<path class="st0" d="M396.7,166.6c-6.6-6.6-15.9-10.3-26-10.3c-12.6,0-25.3,5.6-35,15.3c-18.2,18.2-20.4,45.6-5,61
			c6.6,6.6,15.9,10.3,26,10.3c12.6,0,25.3-5.6,35-15.3c8.7-8.7,14-19.7,15.1-31C407.9,184.9,404.3,174.2,396.7,166.6z M394.8,195.5
			c-0.8,8.5-4.9,16.9-11.6,23.6c-7.5,7.5-17.2,11.8-26.6,11.8c-7,0-13-2.3-17.5-6.8c-10.8-10.8-8.5-30.5,5-44
			c7.5-7.5,17.2-11.8,26.6-11.8c7,0,13,2.4,17.5,6.8C393.3,180.1,395.6,187.4,394.8,195.5z"/>
		<path class="st0" d="M157,202.5c-1.1-11.3-6.4-22.3-15.1-31c-9.7-9.7-22.5-15.3-35-15.3c-10.1,0-19.3,3.7-26,10.3
			c-7.6,7.6-11.2,18.3-10.1,30c1.1,11.3,6.4,22.3,15.1,31c9.7,9.7,22.5,15.3,35,15.3c10.1,0,19.3-3.7,26-10.3
			C154.5,224.9,158.1,214.2,157,202.5z M138.4,224.1c-4.4,4.4-10.5,6.8-17.5,6.8c-9.4,0-19.1-4.3-26.6-11.8
			c-6.7-6.7-10.8-15.1-11.6-23.6c-0.8-8.1,1.6-15.4,6.7-20.4c4.4-4.4,10.5-6.8,17.5-6.8c9.4,0,19.1,4.3,26.6,11.8
			c6.7,6.7,10.8,15.1,11.6,23.6C145.8,211.8,143.5,219,138.4,224.1z"/>
		<path class="st0" d="M407.7,69.9C362.5,24.8,302.6,0,238.8,0C175,0,115,24.8,69.9,69.9S0,175,0,238.8s24.8,123.8,69.9,168.9
			c45.1,45.1,105.1,69.9,168.9,69.9c63.8,0,123.8-24.8,168.9-69.9c45.1-45.1,69.9-105.1,69.9-168.9S452.8,115,407.7,69.9z
			 M238.8,465.6C113.7,465.6,12,363.9,12,238.8C12,113.7,113.7,12,238.8,12c125.1,0,226.8,101.7,226.8,226.8
			S363.9,465.6,238.8,465.6z"/>
	</g>
</g>
</svg>
