<?xml version="1.0" encoding="utf-8"?>
<!-- Generator: Adobe Illustrator 22.0.1, SVG Export Plug-In . SVG Version: 6.00 Build 0)  -->
<svg version="1.1" id="Capa_1" xmlns="http://www.w3.org/2000/svg" xmlns:xlink="http://www.w3.org/1999/xlink" x="0px" y="0px"
	 viewBox="0 0 612 612" style="enable-background:new 0 0 612 612;" xml:space="preserve">
<style type="text/css">
	.st0{fill:#010002;}
</style>
<g>
	<g>
		<path class="st0" d="M306,610C138.4,610,2,473.6,2,306S138.4,2,306,2s304,136.4,304,304C610,473.6,473.6,610,306,610z M306,36.7
			C157.5,36.7,36.7,157.5,36.7,306S157.5,575.2,306,575.2c148.5,0,269.2-120.8,269.2-269.2S454.5,36.7,306,36.7z"/>
	</g>
	<g>
		<path class="st0" d="M425.9,323.4H186.1c-9.6,0-17.4-7.8-17.4-17.4c0-9.6,7.8-17.4,17.4-17.4h239.7c9.6,0,17.4,7.8,17.4,17.4
			C443.2,315.6,435.5,323.4,425.9,323.4z"/>
	</g>
	<g>
		<path class="st0" d="M306,443.2c-9.6,0-17.4-7.8-17.4-17.4V186.1c0-9.6,7.8-17.4,17.4-17.4s17.4,7.8,17.4,17.4v239.7
			C323.4,435.5,315.6,443.2,306,443.2z"/>
	</g>
</g>
</svg>
