<?xml version="1.0" encoding="utf-8"?>
<!-- Generator: Adobe Illustrator 22.0.1, SVG Export Plug-In . SVG Version: 6.00 Build 0)  -->
<svg version="1.1" id="Layer_1" xmlns="http://www.w3.org/2000/svg" xmlns:xlink="http://www.w3.org/1999/xlink" x="0px" y="0px"
	 viewBox="0 0 512 512" style="enable-background:new 0 0 512 512;" xml:space="preserve">
<path d="M512,367c-0.1-16.5-6.7-32.1-18.4-43.8c-24.5-24.5-64.3-24.5-88.7,0L385,343.1H232.5l-19.9-19.9
	c-11.9-11.9-27.6-18.4-44.4-18.4c-2.4,0-4.9,0.2-7.3,0.4c27.4-107.9,113.2-192.1,222.1-217.1c35.2,37.9,56.8,88.7,56.8,144.5
	c0,20-2.8,39.8-8.2,58.8c-1.2,4,1.2,8.2,5.2,9.4c0.7,0.2,1.4,0.3,2.1,0.3c3.3,0,6.3-2.2,7.3-5.5c5.9-20.4,8.8-41.6,8.8-63
	c0-60.8-23.7-118-66.7-160.9C345.5,28.7,288.4,5,227.6,5c-47.1,0-92.3,14.3-130.7,41.2c-3.4,2.4-4.3,7.2-1.9,10.6
	c2.4,3.4,7.2,4.3,10.6,1.9c35.8-25.2,78-38.5,121.9-38.5c17.9,0,35.3,2.2,52,6.4c-36.5,13.1-70.4,32.1-101,56.8
	c-36.6,29.5-66.4,65.3-88.7,106.5C64,237.6,49.6,291.4,48,345.9c-3-4.8-5.8-9.6-8.5-14.6c-15.9-30.2-24.3-64.3-24.3-98.7
	c0-60.7,26-118.6,71.4-158.9c3.1-2.8,3.4-7.6,0.6-10.7c-2.8-3.1-7.6-3.4-10.7-0.6C27.9,105.5,0,167.6,0,232.6
	c0,36.8,9,73.4,26,105.8c16.5,31.3,40.4,58.8,69.3,79.5c1.3,1,2.9,1.4,4.4,1.4c2.4,0,4.7-1.1,6.2-3.2c2.4-3.4,1.7-8.2-1.8-10.6
	c-15.3-10.9-29.1-23.9-41-38.5c-0.1-3.4-0.2-6.9-0.2-10.6c0-55.6,13.9-110.7,40.2-159.3c21.3-39.4,49.9-73.7,84.9-101.9
	c34.7-27.9,73.8-48.3,116.3-60.7c24.6,9.6,46.9,23.6,66.1,41c-112.7,29.6-200.3,119.8-226.1,233.9c-7.6,3.1-14.5,7.7-20.5,13.7
	c-11.7,11.7-18.2,27.3-18.4,43.8c-0.1,14.2,4.4,27.7,13,38.8c-8.5,11.1-13.1,24.6-13,38.8c0.1,16.5,6.7,32.1,18.4,43.8
	c12.2,12.2,28.3,18.4,44.4,18.4c16.1,0,32.1-6.1,44.4-18.4l19.9-19.8H385l19.9,19.8c24.5,24.5,64.3,24.5,88.7,0
	c11.7-11.7,18.2-27.3,18.4-43.8c0.1-14.2-4.4-27.7-13-38.8C507.5,394.8,512.1,381.2,512,367z M483.5,411.1
	c17.8,18.5,17.6,48.4-0.6,66.6c-9.3,9.3-21.4,13.9-33.6,13.9c-12.2,0-24.3-4.6-33.6-13.9l-22.1-22.1c-1.4-1.4-3.4-2.2-5.4-2.2H229.3
	c-2,0-3.9,0.8-5.4,2.2l-22.1,22.1c-9,9-20.9,13.9-33.6,13.9c-12.7,0-24.6-4.9-33.6-13.9c-18.2-18.2-18.5-48-0.6-66.6
	c2.8-2.9,2.8-7.6,0-10.5c-17.8-18.5-17.6-48.4,0.6-66.6c9.3-9.3,21.4-13.9,33.6-13.9c12.2,0,24.3,4.6,33.6,13.9l22.1,22.1
	c1.4,1.4,3.4,2.2,5.4,2.2h158.8c2,0,3.9-0.8,5.4-2.2l22.1-22.1c18.5-18.5,48.7-18.5,67.2,0c18.2,18.2,18.5,48,0.6,66.6
	C480.7,403.5,480.7,408.2,483.5,411.1z"/>
<path d="M467.8,347.5c1.2-3.1,0.4-6.7-2.2-8.8c-2.7-2.2-6.6-2.3-9.4-0.2c-5.3,4-3,12.6,3.5,13.6
	C463.1,352.6,466.5,350.7,467.8,347.5z"/>
<path d="M481,359.9c-2.6-6.2-11.7-6.1-14.1,0.2c-1.2,3.2-0.2,6.8,2.6,8.8c2.6,1.9,6.2,2,8.9,0.1C481.2,367.1,482.3,363.2,481,359.9z
	"/>
<path d="M148.9,456.5c-0.6-3.1-3.1-5.5-6.1-6c-3.1-0.5-6.2,0.9-7.8,3.6c-1.7,2.8-1.3,6.5,0.8,9c2.1,2.4,5.6,3.2,8.6,2
	C147.6,463.6,149.6,460,148.9,456.5z"/>
<path d="M163.7,469.4c-1.2-2.9-4.2-4.8-7.4-4.7c-3.1,0.2-5.9,2.2-6.8,5.2c-1,3,0,6.3,2.4,8.3c2.5,2.1,6.3,2.3,9,0.4
	C163.9,476.7,165,472.8,163.7,469.4z"/>
<path d="M457.7,361c-1.2-2.9-4.1-4.8-7.2-4.7s-6,2.1-7,5c-2.4,6.7,5.2,12.7,11.2,9C457.8,368.4,459.1,364.4,457.7,361z"/>
</svg>
