<svg height="512pt" viewBox="0 -48 512 512" width="512pt" xmlns="http://www.w3.org/2000/svg"><path d="m483.972656 83.242188c2.554688-5.828126 3.980469-12.261719 3.980469-19.023438 0-26.242188-21.351563-47.589844-47.59375-47.589844-12.839844 0-24.5 5.117188-33.066406 13.410156-12.429688-3.511718-25.535157-5.394531-39.074219-5.394531-51.324219 0-128.535156 32.757813-229.492188 97.371094-74.617187 47.757813-135.300781 96.167969-135.90625 96.648437-1.78125 1.425782-2.820312 3.585938-2.820312 5.871094v184.359375c0 4.148438 3.363281 7.515625 7.515625 7.515625h244.976563c4.152343 0 7.515624-3.367187 7.515624-7.515625 0-4.152343-3.363281-7.515625-7.515624-7.515625h-237.460938v-69c27.246094-21.375 243.84375-188.503906 353.1875-188.503906 70.992188 0 128.75 57.757812 128.75 128.753906 0 70.992188-57.757812 128.75-128.75 128.75h-80.15625c-4.152344 0-7.515625 3.363282-7.515625 7.515625 0 4.148438 3.363281 7.515625 7.515625 7.515625h80.15625c79.28125 0 143.78125-64.5 143.78125-143.78125v-104.203125c0-31.859375-10.421875-61.324219-28.027344-85.183593zm-43.613281-51.585938c17.957031 0 32.5625 14.609375 32.5625 32.5625 0 1.808594-.152344 3.578125-.4375 5.304688-13.53125-14.257813-29.949219-25.757813-48.308594-33.542969 4.773438-2.746094 10.296875-4.324219 16.183594-4.324219zm0 49.097656c-4.152344 0-7.515625 3.363282-7.515625 7.511719v7.632813c-14.339844-3.402344-25.046875-16.308594-25.046875-31.679688 0-6.109375 1.695313-11.832031 4.636719-16.722656 20.828125 7.636718 39.144531 20.515625 53.363281 37.023437-4.472656 5.589844-10.738281 9.675781-17.921875 11.378907v-7.632813c0-4.148437-3.363281-7.511719-7.515625-7.511719zm-72.140625 48.09375c-51.324219 0-128.535156 32.761719-229.492188 97.371094-54.90625 35.140625-102.265624 70.632812-123.695312 87.125v-85.167969c27.246094-21.375 243.84375-188.503906 353.1875-188.503906 10.152344 0 20.03125 1.1875 29.511719 3.417969-3.167969 6.371094-4.964844 13.542968-4.964844 21.128906 0 23.6875 17.394531 43.382812 40.078125 46.996094v9.113281c0 4.152344 3.363281 7.515625 7.515625 7.515625s7.515625-3.363281 7.515625-7.515625v-9.113281c10.664062-1.699219 20.152344-6.957032 27.222656-14.507813 13.804688 20.507813 21.871094 45.1875 21.871094 71.71875v40.253907c-23.574219-47.277344-72.425781-79.832032-128.75-79.832032zm0 0"/><path d="m368.21875 360.296875c48.34375 0 87.671875-39.328125 87.671875-87.667969 0-48.34375-39.328125-87.671875-87.671875-87.671875s-87.671875 39.328125-87.671875 87.671875c0 48.339844 39.328125 87.667969 87.671875 87.667969zm0-160.3125c40.054688 0 72.640625 32.589844 72.640625 72.644531 0 40.054688-32.585937 72.640625-72.640625 72.640625s-72.640625-32.585937-72.640625-72.640625c0-40.054687 32.585937-72.644531 72.640625-72.644531zm0 0"/><path d="m251.933594 89.890625c-2.214844-1.367187-4.980469-1.492187-7.3125-.328125l-48.09375 24.046875c-2.542969 1.273437-4.152344 3.875-4.152344 6.71875v48.097656c0 5.472657 5.957031 9.179688 10.875 6.71875l48.09375-24.046875c2.546875-1.273437 4.152344-3.875 4.152344-6.71875v-48.097656c.003906-2.601562-1.347656-5.023438-3.5625-6.390625zm-11.464844 49.84375-33.0625 16.53125v-31.292969l33.0625-16.53125zm0 0"/><path d="m192.699219 34.96875c1.277343 2.726562 3.984375 4.324219 6.808593 4.324219 1.070313 0 2.152344-.226563 3.1875-.710938 3.757813-1.761719 5.375-6.234375 3.613282-9.992187l-6.800782-14.515625c-1.761718-3.757813-6.234374-5.378907-9.996093-3.617188-3.757813 1.761719-5.375 6.234375-3.613281 9.992188zm0 0"/><path d="m222.125 35.898438c3.851562 1.394531 8.230469-.65625 9.621094-4.507813l7.714844-21.316406c1.410156-3.902344-.605469-8.210938-4.511719-9.625-3.898438-1.410157-8.210938.605469-9.621094 4.511719l-7.714844 21.316406c-1.410156 3.902344.609375 8.210937 4.511719 9.621094zm0 0"/><path d="m157.253906 48.59375 21.320313 7.714844c4.058593 1.46875 8.628906-.898438 9.792969-5.046875 1.050781-3.734375-1.03125-7.765625-4.679688-9.085938l-21.320312-7.714843c-3.894532-1.414063-8.207032.605468-9.621094 4.507812-1.414063 3.902344.605468 8.210938 4.507812 9.625zm0 0"/></svg>