<svg id="Layer_1" data-name="Layer 1" xmlns="http://www.w3.org/2000/svg" viewBox="0 0 512 416.41"><title>wizz</title><path d="M484,131.24A47.56,47.56,0,0,0,407.29,78a143.55,143.55,0,0,0-39.07-5.4c-51.33,0-128.54,32.76-229.49,97.38C64.11,217.77,3.43,266.18,2.82,266.66A7.54,7.54,0,0,0,0,272.54V456.89a7.52,7.52,0,0,0,7.52,7.52h245a7.52,7.52,0,1,0,0-15H15v-69C42.28,359,258.88,191.88,368.22,191.88a128.75,128.75,0,0,1,0,257.5H288.06a7.52,7.52,0,0,0,0,15h80.16c79.28,0,143.78-64.5,143.78-143.78V216.43A143,143,0,0,0,484,131.24ZM440.36,79.66a32.6,32.6,0,0,1,32.56,32.56,31.86,31.86,0,0,1-.44,5.3A144.49,144.49,0,0,0,424.18,84,32.28,32.28,0,0,1,440.36,79.66Zm0,49.09a7.52,7.52,0,0,0-7.52,7.52v7.63a32.55,32.55,0,0,1-20.41-48.4,129.18,129.18,0,0,1,53.37,37,32.63,32.63,0,0,1-17.92,11.38v-7.63A7.52,7.52,0,0,0,440.36,128.75Zm-72.14,48.1c-51.33,0-128.54,32.76-229.49,97.37C83.82,309.36,36.46,344.85,15,361.34V276.18C42.28,254.8,258.88,87.67,368.22,87.67a128.75,128.75,0,0,1,29.51,3.42,47.57,47.57,0,0,0,35.11,68.12v9.12a7.52,7.52,0,0,0,15,0v-9.12a47.5,47.5,0,0,0,27.22-14.5A128,128,0,0,1,497,216.43v40.25A143.94,143.94,0,0,0,368.22,176.85Z" transform="translate(0 -48)"/><path d="M368.22,408.3a87.67,87.67,0,1,0-87.67-87.67A87.77,87.77,0,0,0,368.22,408.3Zm0-160.32a72.65,72.65,0,1,1-72.64,72.65A72.73,72.73,0,0,1,368.22,248Z" transform="translate(0 -48)"/><path d="M251.93,137.89a7.52,7.52,0,0,0-7.31-.33l-48.09,24.05a7.49,7.49,0,0,0-4.15,6.72v48.1a7.57,7.57,0,0,0,10.87,6.71l48.09-24a7.53,7.53,0,0,0,4.16-6.72v-48.1A7.51,7.51,0,0,0,251.93,137.89Zm-11.46,49.84-33.06,16.54V173l33.06-16.53Z" transform="translate(0 -48)"/><path d="M192.7,83a7.52,7.52,0,0,0,13.61-6.38l-6.8-14.52a7.52,7.52,0,0,0-13.61,6.38Z" transform="translate(0 -48)"/><path d="M222.12,83.9a7.59,7.59,0,0,0,9.63-4.51l7.71-21.32A7.51,7.51,0,0,0,225.33,53l-7.72,21.32A7.52,7.52,0,0,0,222.12,83.9Z" transform="translate(0 -48)"/><path d="M157.25,96.59l21.32,7.72a7.51,7.51,0,1,0,5.12-14.13l-21.32-7.72a7.51,7.51,0,0,0-5.12,14.13Z" transform="translate(0 -48)"/></svg>